# xmcd
#
# Track frame offsets:
#	150
#	14267
#	33520
#	46780
#	65022
#	81952
#	99022
#	114437
#	133162
#	148140
#	166865
#	183295
#	197380
#	213122
#
# Disc length: 3024 seconds
#
# Revision: 0
# Processed by: cddbd v1.5.1PL0 Copyright (c) Steve Scherf et al.
# Submitted via: EasyCDDAExtractor 8.1.4.1
#
DISCID=b40bce0e
DTITLE=Johnny Marks - The Ladder Of Love
DYEAR=2000
DGENRE=Country
TTITLE0=No Reason Now
TTITLE1=How Was It For You
TTITLE2=The Ladder Of Love
TTITLE3=What Colour Is The Wind
TTITLE4=Down Mexico Way
TTITLE5=It Will Never Be Over
TTITLE6=Ripping Up The Note
TTITLE7=I Love You Every Second
TTITLE8=Time On My Hands
TTITLE9=Two Different Worlds
TTITLE10=Carmen
TTITLE11=There's A Dark Cloud
TTITLE12=Every Second, Every Minute
TTITLE13=Out Of Sight, Out Of Mind 
EXTD=
EXTT0=
EXTT1=
EXTT2=
EXTT3=
EXTT4=
EXTT5=
EXTT6=
EXTT7=
EXTT8=
EXTT9=
EXTT10=
EXTT11=
EXTT12=
EXTT13=
PLAYORDER=
